<svg xmlns="http://www.w3.org/2000/svg" viewBox="0 0 218.22 79.63"><g id="Layer_2" data-name="Layer 2"><g id="Layer_1-2" data-name="Layer 1"><path d="M60.14.77V54.52H49.36V.77Z"/><path d="M189.07,53.13A16.59,16.59,0,0,1,182,47.59a14.6,14.6,0,0,1-2.7-8.55H190.8a7.48,7.48,0,0,0,2.35,5.23A8.3,8.3,0,0,0,199,46.2a8.89,8.89,0,0,0,5.92-1.81,5.88,5.88,0,0,0,2.16-4.74,5.47,5.47,0,0,0-1.46-3.92,10.29,10.29,0,0,0-3.66-2.43,61.28,61.28,0,0,0-6-2,64.84,64.84,0,0,1-8.51-3,14.86,14.86,0,0,1-5.62-4.55,12.89,12.89,0,0,1-2.35-8.12,14.57,14.57,0,0,1,2.38-8.32,15.2,15.2,0,0,1,6.7-5.42A24.36,24.36,0,0,1,198.35,0q8.31,0,13.51,4a15,15,0,0,1,5.74,11.28H205.74a6.13,6.13,0,0,0-2.35-4.58,8.87,8.87,0,0,0-5.81-1.81,7.44,7.44,0,0,0-5,1.62,5.84,5.84,0,0,0-1.89,4.7,4.86,4.86,0,0,0,1.42,3.58,10.81,10.81,0,0,0,3.55,2.31q2.12.88,6,2a61.59,61.59,0,0,1,8.55,3.08,15.19,15.19,0,0,1,5.7,4.62A12.81,12.81,0,0,1,218.22,39,15.19,15.19,0,0,1,216,47a15.79,15.79,0,0,1-6.54,5.89,22.38,22.38,0,0,1-10.24,2.19A25.59,25.59,0,0,1,189.07,53.13Z"/><path d="M15.81,68.35,12.69,79.52H10.05l-2.1-8-2.19,8H3.13l-3-11.18h2.4l2,8.67,2.28-8.67H9.26L11.41,77l2-8.62Z"/><path d="M30.54,70.16V73H34.3v1.77H30.54v3h4.24v1.83H28.3V68.33h6.48v1.83Z"/><path d="M55.74,74.73a2.73,2.73,0,0,1,.61,1.76,2.77,2.77,0,0,1-1.71,2.64,4.62,4.62,0,0,1-2,.39H47.85V68.35h4.61a4.7,4.7,0,0,1,2,.37,2.63,2.63,0,0,1,1.67,2.51,2.53,2.53,0,0,1-.52,1.63,2.7,2.7,0,0,1-1.38.93A2.5,2.5,0,0,1,55.74,74.73ZM50.09,73h2a1.86,1.86,0,0,0,1.23-.36,1.28,1.28,0,0,0,.44-1,1.31,1.31,0,0,0-.44-1,1.86,1.86,0,0,0-1.23-.36h-2Zm3.53,4.35a1.34,1.34,0,0,0,.46-1.09,1.4,1.4,0,0,0-.48-1.13,2,2,0,0,0-1.3-.41H50.09v3h2.26A1.94,1.94,0,0,0,53.62,77.31Z"/><path d="M91,69a4.82,4.82,0,0,1,2.06,2,5.76,5.76,0,0,1,.73,3,5.66,5.66,0,0,1-.73,2.93,4.91,4.91,0,0,1-2.06,2,6.65,6.65,0,0,1-3.1.69H84V68.35h3.9A6.65,6.65,0,0,1,91,69Zm-.46,7.61a3.65,3.65,0,0,0,1-2.7,3.76,3.76,0,0,0-1-2.73,3.6,3.6,0,0,0-2.72-1H86.27v7.37h1.58A3.67,3.67,0,0,0,90.57,76.65Z"/><path d="M108.78,70.16V73h3.76v1.77h-3.76v3H113v1.83h-6.48V68.33H113v1.83Z"/><path d="M127.85,79.23a3.43,3.43,0,0,1-1.48-1.15,3,3,0,0,1-.56-1.78h2.4a1.56,1.56,0,0,0,.48,1.09,1.78,1.78,0,0,0,1.21.4,1.86,1.86,0,0,0,1.23-.38,1.22,1.22,0,0,0,.45-1,1.17,1.17,0,0,0-.3-.82,2.14,2.14,0,0,0-.76-.5c-.31-.12-.73-.26-1.26-.41a13.38,13.38,0,0,1-1.77-.63,3.11,3.11,0,0,1-1.16-.95,2.64,2.64,0,0,1-.49-1.68,3,3,0,0,1,.49-1.73,3.16,3.16,0,0,1,1.4-1.13,5,5,0,0,1,2-.39,4.43,4.43,0,0,1,2.81.84,3.09,3.09,0,0,1,1.19,2.34h-2.46a1.26,1.26,0,0,0-.49-1,1.83,1.83,0,0,0-1.21-.38,1.57,1.57,0,0,0-1,.34,1.19,1.19,0,0,0-.4,1,1,1,0,0,0,.3.74,2.15,2.15,0,0,0,.74.48c.29.12.7.26,1.24.42a14.82,14.82,0,0,1,1.77.64,3.33,3.33,0,0,1,1.19,1,2.68,2.68,0,0,1,.49,1.68,3.16,3.16,0,0,1-.46,1.67,3.3,3.3,0,0,1-1.36,1.22,4.58,4.58,0,0,1-2.13.46A5.38,5.38,0,0,1,127.85,79.23Z"/><path d="M149.12,68.35V79.52h-2.24V68.35Z"/><path d="M170.14,71.71a2.58,2.58,0,0,0-1-1.07,3.2,3.2,0,0,0-1.57-.37,3.41,3.41,0,0,0-1.76.45,3,3,0,0,0-1.2,1.28,4.43,4.43,0,0,0,0,3.87,3.14,3.14,0,0,0,1.22,1.28,3.59,3.59,0,0,0,1.82.45,3.17,3.17,0,0,0,2.1-.68,3.29,3.29,0,0,0,1.07-1.9h-3.84V73.31H173v2a5.25,5.25,0,0,1-1,2.16,5.38,5.38,0,0,1-1.9,1.59,5.57,5.57,0,0,1-2.6.6,5.86,5.86,0,0,1-2.92-.73,5.21,5.21,0,0,1-2-2,5.77,5.77,0,0,1-.75-2.94,5.84,5.84,0,0,1,.75-3,5.24,5.24,0,0,1,2-2,5.93,5.93,0,0,1,2.91-.73,5.84,5.84,0,0,1,3.28.92,4.71,4.71,0,0,1,1.92,2.59Z"/><path d="M195.25,79.52H193l-5.07-7.67v7.67h-2.24V68.33h2.24L193,76V68.33h2.25Z"/><path d="M210.25,79.23a3.53,3.53,0,0,1-1.49-1.15,3.08,3.08,0,0,1-.55-1.78h2.39a1.61,1.61,0,0,0,.49,1.09,1.78,1.78,0,0,0,1.21.4,1.86,1.86,0,0,0,1.23-.38,1.22,1.22,0,0,0,.45-1,1.17,1.17,0,0,0-.3-.82,2.24,2.24,0,0,0-.76-.5c-.31-.12-.73-.26-1.26-.41a13.38,13.38,0,0,1-1.77-.63,3.22,3.22,0,0,1-1.17-.95,2.7,2.7,0,0,1-.48-1.68,3,3,0,0,1,.49-1.73,3.19,3.19,0,0,1,1.39-1.13,5.13,5.13,0,0,1,2-.39A4.43,4.43,0,0,1,215,69a3.09,3.09,0,0,1,1.19,2.34h-2.46a1.26,1.26,0,0,0-.49-1A1.84,1.84,0,0,0,212,70a1.61,1.61,0,0,0-1,.34,1.22,1.22,0,0,0-.39,1,1,1,0,0,0,.3.74,2.21,2.21,0,0,0,.73.48c.3.12.71.26,1.24.42a14.42,14.42,0,0,1,1.78.64,3.3,3.3,0,0,1,1.18,1,2.62,2.62,0,0,1,.5,1.68,3.16,3.16,0,0,1-.46,1.67,3.3,3.3,0,0,1-1.36,1.22,4.58,4.58,0,0,1-2.13.46A5.38,5.38,0,0,1,210.25,79.23Z"/><polygon points="91.56 39.73 78.08 0.77 66.53 0.77 86.24 54.52 91.56 39.73 91.56 39.73"/><polygon points="107.57 0.77 92.86 43.51 92.86 43.5 89.06 54.52 99.33 54.52 119.04 0.77 107.57 0.77"/><path d="M27.33,32.72a15.8,15.8,0,0,0,9.17-5.89,16,16,0,0,0,3.08-9.58,16.14,16.14,0,0,0-2.2-8.36A15.32,15.32,0,0,0,30.8,3,23.62,23.62,0,0,0,20.17.77H0V22.94H10.78V9.7h9c2.92,0,5.11.68,6.54,2a7.51,7.51,0,0,1,2.16,5.74,7.88,7.88,0,0,1-2.16,5.89c-1.43,1.41-3.62,2.12-6.54,2.12H0v29H10.78v-21h5.08l11.86,21H40.19Z"/><polygon points="154.08 0.69 141.53 0.69 130.05 32.66 141.02 32.66 147.76 13.17 155.54 35.65 145.07 35.65 139.99 35.65 128.97 35.65 122.2 54.52 133.52 54.52 137.06 44.27 158.47 44.27 162.01 54.52 173.4 54.52 154.08 0.69"/></g></g></svg>